<?xml version="1.0" encoding="UTF-8" standalone="no"?>
<svg id="layer_1" data-name="layer 1" xmlns="http://www.w3.org/2000/svg" width="200px" height="200px" viewBox="0 0 200 200">
  <defs>
    <style>.cls-1{fill:#f15a29;}</style>
  </defs>
  <title>Heron</title>
  <path
    d="M73,61.14c-2.9-4-4.21-6.28-6.91-9.85-5.66-7.51-12-8.43-13.6-7s-1,7.85,6.2,13.9c3.43,2.88,5.66,4.32,9.49,7.43,21.61,17.54,28.38,32.5,28.38,32.5-3.75-8.57-10.66-17.89-17.88-26.23C86.61,79.58,95.57,87,104,91.2,104,91.2,89.33,83.6,73,61.14Z"
    transform="translate(-0.93 -0.43)"/>
  <path class="cls-1"
        d="M39.32,30.32l-.19-.2.08.12-.12-.09.19.2c3.33,6,11.65,14.49,11.65,14.49a1.92,1.92,0,0,1,2.2-2.05S44.47,33.34,39.32,30.32Z"
        transform="translate(-0.93 -0.43)"/>
  <path
    d="M144.69,117.24c-4.71,8.39,3.37,20.35,6.55,27.59.83,1.89,1,3.39.72,4.36-1,.27-2.49,0-4.33-1-7.08-3.59-18.62-12.3-27.32-8.11,2.86-1.19,16.74-1.93,38.48,24.49,0,0-14.09-20.2,6.25-1.63-17.46-21.26,2-6.1,2-6.1C141.78,133.75,143.33,120,144.69,117.24Z"
    transform="translate(-0.93 -0.43)"/>
  <path class="cls-1"
        d="M186.45,187.07c-.91-1.05-2.18-2.3-3.49-3.87-2.67-3.18-3.77-2-8-6.24-3.34-3.37-10-10.6-19.4-20.48,0,0,19.38,22.51,22.52,26.95s12.47,8.51,16.68,17c0,0-2.13-6.61-10.24-13.56.92.78,3.87,3.2,5.84,3.73A15.58,15.58,0,0,1,186.45,187.07Z"
        transform="translate(-0.93 -0.43)"/>
  <path class="cls-1"
        d="M184.82,177.09c-4.27-3.37-25.74-23.92-25.74-23.92,9.37,9.89,16.25,16.94,19.44,20.45,4,4.45,2.76,5.47,5.8,8.3,1.49,1.39,2.68,2.73,3.68,3.69a15.52,15.52,0,0,1,3.31,4.08c-.42-2-2.67-5.05-3.4-6,6.51,8.45,13,11,13,11C192.65,190,189.09,180.46,184.82,177.09Z"
        transform="translate(-0.93 -0.43)"/>
  <path
    d="M105.91,146.47c-18.33,11.09-52,15.2-53.73-4.86a8,8,0,0,1,3.13-6.38c8.36-6.52,32.89-18.14,37.22-33.49-4.56,13.34-26.58,23.6-38.24,31-8.2,5.2-18.62,17.4-22.06,20.21C22.31,161.05,12,167.14.93,168.79c0,0,9.2,5.9,23.15-1.28A31.17,31.17,0,0,1,7.82,176.2s17.15,1.5,19.49-3c0,0-1.95,5.83-9.74,9.32,0,0,10.76-.74,14.57-4.58,0,0,.1,2.85-6.21,6.64,0,0,9.36,0,23.24-8.15,11.31-6.62,22.27-10.09,32.43-13.31,15.93-5.05,33.26-16.8,39.29-29.94A64.34,64.34,0,0,1,105.91,146.47Z"
    transform="translate(-0.93 -0.43)"/>
  <path
    d="M187.5,7.71a31,31,0,0,1-9.68,15.63c8-13.43,2.64-22.91,2.64-22.91-2.3,10.85-9,20.77-17.73,30.14-3,3.25-15.88,12.88-21.58,20.71C133,62.42,121.46,83.67,107.8,87.42c15.66-3.39,28.76-27.06,35.8-35a8.1,8.1,0,0,1,6.59-2.73c20,2.93,13.95,36.06,1.75,53.61a64.32,64.32,0,0,1-14.25,14.1C151.22,112.19,164,95.68,170,80.16c3.83-9.9,7.94-20.56,15.25-31.41,9-13.3,9.53-22.59,9.53-22.59-4.18,6-7,5.77-7,5.77,4.08-3.56,5.45-14.2,5.45-14.2-4,7.54-9.93,9.13-9.93,9.13C188,24.82,187.5,7.71,187.5,7.71Z"
    transform="translate(-0.93 -0.43)"/>
</svg>
